<?xml version="1.0" encoding="UTF-8" standalone="no"?>
<svg
   xmlns:dc="http://purl.org/dc/elements/1.1/"
   xmlns:cc="http://creativecommons.org/ns#"
   xmlns:rdf="http://www.w3.org/1999/02/22-rdf-syntax-ns#"
   xmlns:svg="http://www.w3.org/2000/svg"
   xmlns="http://www.w3.org/2000/svg"
   xmlns:xlink="http://www.w3.org/1999/xlink"
   xmlns:sodipodi="http://sodipodi.sourceforge.net/DTD/sodipodi-0.dtd"
   xmlns:inkscape="http://www.inkscape.org/namespaces/inkscape"
   width="79.750305mm"
   height="53.40966mm"
   viewBox="0 0 79.750305 53.40966"
   version="1.1"
   id="svg8"
   inkscape:version="1.0.2 (e86c870879, 2021-01-15)"
   sodipodi:docname="Icon.svg">
  <defs
     id="defs2">
    <linearGradient
       inkscape:collect="always"
       id="linearGradient877">
      <stop
         style="stop-color:#297efe;stop-opacity:1;"
         offset="0"
         id="stop873" />
      <stop
         style="stop-color:#297efe;stop-opacity:0.58507627"
         offset="1"
         id="stop875" />
    </linearGradient>
    <linearGradient
       inkscape:collect="always"
       id="linearGradient1138">
      <stop
         style="stop-color:#ffffff;stop-opacity:1;"
         offset="0"
         id="stop1134" />
      <stop
         style="stop-color:#84d8ff;stop-opacity:1"
         offset="1"
         id="stop1136" />
    </linearGradient>
    <linearGradient
       inkscape:collect="always"
       id="linearGradient1110">
      <stop
         style="stop-color:#297efe;stop-opacity:0.9588353"
         offset="0"
         id="stop1106" />
      <stop
         style="stop-color:#1f79ff;stop-opacity:0.82745099"
         offset="1"
         id="stop1108" />
    </linearGradient>
    <linearGradient
       inkscape:collect="always"
       id="linearGradient1080">
      <stop
         style="stop-color:#297efe;stop-opacity:1;"
         offset="0"
         id="stop1076" />
      <stop
         style="stop-color:#297efe;stop-opacity:0;"
         offset="1"
         id="stop1078" />
    </linearGradient>
    <linearGradient
       inkscape:collect="always"
       xlink:href="#linearGradient1080"
       id="linearGradient1082"
       x1="111.33492"
       y1="93.592659"
       x2="111.58829"
       y2="136.98315"
       gradientUnits="userSpaceOnUse" />
    <linearGradient
       inkscape:collect="always"
       xlink:href="#linearGradient1110"
       id="linearGradient1112"
       x1="126.36415"
       y1="138.30252"
       x2="67.389893"
       y2="93.2239"
       gradientUnits="userSpaceOnUse" />
    <linearGradient
       inkscape:collect="always"
       xlink:href="#linearGradient1138"
       id="linearGradient1140"
       x1="383.02182"
       y1="338.05386"
       x2="384.87357"
       y2="538.52374"
       gradientUnits="userSpaceOnUse" />
    <linearGradient
       inkscape:collect="always"
       xlink:href="#linearGradient877"
       id="linearGradient879"
       x1="309.6058"
       y1="402.81253"
       x2="309.87695"
       y2="309.80664"
       gradientUnits="userSpaceOnUse" />
  </defs>
  <sodipodi:namedview
     id="base"
     pagecolor="#ffffff"
     bordercolor="#666666"
     borderopacity="1.0"
     inkscape:pageopacity="0.0"
     inkscape:pageshadow="2"
     inkscape:zoom="2.0000001"
     inkscape:cx="94.112748"
     inkscape:cy="106.41913"
     inkscape:document-units="mm"
     inkscape:current-layer="text897"
     inkscape:document-rotation="0"
     showgrid="false"
     inkscape:window-width="1835"
     inkscape:window-height="1016"
     inkscape:window-x="85"
     inkscape:window-y="27"
     inkscape:window-maximized="1"
     fit-margin-top="0"
     fit-margin-left="0"
     fit-margin-right="0"
     fit-margin-bottom="0" />
  <metadata
     id="metadata5">
    <rdf:RDF>
      <cc:Work
         rdf:about="">
        <dc:format>image/svg+xml</dc:format>
        <dc:type
           rdf:resource="http://purl.org/dc/dcmitype/StillImage" />
        <dc:title></dc:title>
      </cc:Work>
    </rdf:RDF>
  </metadata>
  <g
     inkscape:label="Capa 1"
     inkscape:groupmode="layer"
     id="layer1"
     transform="translate(-56.99776,-89.213676)">
    <path
       id="rect905-8"
       style="mix-blend-mode:normal;fill:url(#linearGradient1140);fill-opacity:1;stroke:none;stroke-width:2.81681;stroke-dasharray:2.81681, 2.81681"
       d="m 270.57031,337.18555 c -19.13551,0 -34.54101,15.4055 -34.54101,34.54101 v 46.95313 c -13.09075,6.98226 -23.2287,16.66825 -20,26.28125 l 20,59.54687 c 6.09255,18.13969 15.4055,34.54102 34.54101,34.54102 h 191.15821 c 19.13552,0 28.62726,-16.34225 34.54101,-34.54102 l 20,-61.54687 c 3.12889,-9.62872 -6.96608,-18.73592 -20,-25.17969 v -46.05469 c 0,-19.13551 -15.40549,-34.54101 -34.54101,-34.54101 z m 7.12305,15.15625 h 176.91211 c 12.73713,0 22.99219,8.52517 22.99219,19.11523 v 39.38672 c -5.89845,-1.55044 -11.47142,-2.42383 -15.86914,-2.42383 H 270.57031 c -4.39231,0 -9.9664,0.97811 -15.86914,2.69141 v -39.6543 c 0,-10.59006 10.25505,-19.11523 22.99219,-19.11523 z"
       transform="scale(0.26458333)" />
    <g
       aria-label="IS
"
       id="text897"
       style="font-size:32.3552px;line-height:1.25;font-family:'Nimbus Sans';-inkscape-font-specification:'Nimbus Sans';fill:#297efe;fill-opacity:1;stroke-width:0.808882">
      <path
         id="path859"
         style="font-style:normal;font-variant:normal;font-weight:bold;font-stretch:normal;font-family:'Nimbus Sans';-inkscape-font-specification:'Nimbus Sans Bold';fill:url(#linearGradient879);fill-opacity:1;stroke-width:3.05719"
         d="m 309.87695,309.80664 c -21.40028,0 -33.75195,10.02777 -33.75195,27.39258 0,13.81844 6.96983,20.54472 25.06836,23.96875 l 12.47266,2.44531 c 12.22877,2.32347 16.7539,5.74792 16.7539,12.96289 0,7.45954 -6.84838,11.98438 -17.97656,11.98438 -12.4733,0 -19.44325,-5.25845 -20.05469,-14.79688 h -17.85351 c 1.10058,19.07683 14.18424,29.47071 36.92968,29.47071 22.99004,0 36.56446,-10.63858 36.56446,-28.85938 0,-14.06306 -7.09278,-21.40059 -23.60157,-24.58008 l -13.93945,-2.68945 c -13.08475,-2.56804 -16.87695,-5.13594 -16.87695,-11.61719 0,-6.72578 5.86978,-11.00586 15.4082,-11.00586 11.61729,0 18.09952,4.89017 18.71094,13.93946 h 17.11914 c -0.12208,-18.46542 -12.47177,-28.61524 -34.97266,-28.61524 z m -65.54687,1.46875 v 89.14649 h 18.34375 v -89.14649 z"
         transform="matrix(0.26458333,0,0,0.26458333,18.508671,32.541042)" />
    </g>
  </g>
</svg>
